<svg width="80" height="80" viewBox="0 0 80 80" fill="none" xmlns="http://www.w3.org/2000/svg">
<path d="M73.3334 45.3333C74.0707 45.3333 74.6667 44.7359 74.6667 44V38.6667C74.6667 37.9308 74.0707 37.3334 73.3334 37.3334H66.6667V36C66.6667 35.2641 66.0707 34.6667 65.3334 34.6667C64.596 34.6667 64.0001 35.2641 64.0001 36V37.3333H26.6668V36C26.6668 35.2641 26.0695 34.6667 25.3335 34.6667C24.5976 34.6667 24.0002 35.2641 24.0002 36V37.3333H17.3335C16.5976 37.3333 16.0002 37.9306 16.0002 38.6666V44C16.0002 44.7359 16.5976 45.3333 17.3335 45.3333H25.3335H65.3335H73.3334ZM18.6668 42.6667V40H72.0001V42.6667H18.6668Z" fill="#D4C17F"/>
<path d="M48.0001 29.3333C45.8441 29.3333 44.4507 30.9719 44.2987 31.16C43.8373 31.7267 43.9227 32.5547 44.4866 33.0214C45.0519 33.4894 45.888 33.4081 46.3613 32.8508C46.3666 32.8414 47.0893 32.0002 47.9999 32.0002C48.9105 32.0002 49.632 32.8416 49.632 32.8416C49.896 33.1656 50.2799 33.3336 50.6679 33.3336C50.9638 33.3336 51.2599 33.2362 51.5079 33.035C52.0799 32.5709 52.1652 31.7309 51.7012 31.1603C51.5494 30.972 50.156 29.3333 48.0001 29.3333Z" fill="#D4C17F"/>
<path d="M73.3334 56C74.0707 56 74.6667 55.4026 74.6667 54.6667V49.3334C74.6667 48.5975 74.0707 48.0001 73.3334 48.0001H66.6667V46.6669C66.6667 45.9309 66.0707 45.3336 65.3334 45.3336C64.596 45.3336 64.0001 45.9309 64.0001 46.6669V48.0001H26.6668V46.6669C26.6668 45.9309 26.0695 45.3336 25.3335 45.3336C24.5976 45.3336 24.0002 45.9309 24.0002 46.6669V48.0001H17.3335C16.5976 48.0001 16.0002 48.5975 16.0002 49.3334V54.6667C16.0002 55.4026 16.5976 56 17.3335 56H25.3335H65.3335H73.3334ZM18.6668 53.3333V50.6666H72.0001V53.3333H18.6668Z" fill="#D4C17F"/>
<path d="M54.9654 26.1733C55.2295 26.4986 55.6134 26.6666 56.0013 26.6666C56.2973 26.6666 56.5934 26.5692 56.8413 26.368C57.4134 25.9039 57.4987 25.0639 57.0346 24.4933C56.8826 24.3053 55.4893 22.6666 53.3332 22.6666C51.1771 22.6666 49.7838 24.3052 49.6318 24.4933C49.1704 25.06 49.2559 25.888 49.8198 26.3547C50.3851 26.8241 51.2212 26.7414 51.693 26.1841C51.6998 26.1747 52.4224 25.3334 53.333 25.3334C54.2441 25.3333 54.9654 26.1733 54.9654 26.1733Z" fill="#D4C17F"/>
<path d="M1.34008 17.4667C1.40804 18.1481 1.98148 18.6667 2.66679 18.6667H10.6668C11.3521 18.6667 11.9254 18.1481 11.9935 17.4667L13.3268 4.13344C13.3641 3.7575 13.2415 3.38547 12.9882 3.10547C12.7362 2.82672 12.3776 2.66688 12.0002 2.66688H8.00008V1.33328C8.00008 0.597344 7.40273 0 6.66679 0C5.93086 0 5.33351 0.597344 5.33351 1.33328V2.66656H1.33351C0.956169 2.66656 0.597576 2.82656 0.345544 3.10516C0.0922631 3.38516 -0.0303931 3.75719 0.00695064 4.13312L1.34008 17.4667ZM10.5268 5.33328L9.46008 16H3.87336L2.80664 5.33328H10.5268Z" fill="#D4C17F"/>
<path d="M37.3334 30.6667C37.3334 32.1573 37.9427 33.5441 39.0493 34.5694C39.3052 34.8067 39.6307 34.9253 39.956 34.9253C40.3134 34.9253 40.6707 34.7813 40.9334 34.4986C41.4334 33.9586 41.4027 33.1145 40.8627 32.6133C40.3054 32.0986 40.0001 31.4066 40.0001 30.6666C40.0001 29.5625 40.7028 28.5613 41.7507 28.1759C42.1854 28.0159 42.5054 27.6413 42.596 27.1866C42.6881 26.7319 42.5346 26.2625 42.196 25.9466C41.6387 25.4319 41.3334 24.7398 41.3334 23.9998C41.3334 22.6131 42.4254 21.4531 43.8187 21.3572C44.3307 21.3225 44.776 20.9986 44.9667 20.5225C45.156 20.0466 45.0573 19.5039 44.7107 19.1266C44.2521 18.6266 44.0001 17.9892 44.0001 17.3333C44.0001 15.9466 45.0921 14.7866 46.4854 14.6906C46.9974 14.6559 47.4428 14.332 47.6334 13.8559C47.8228 13.38 47.724 12.8373 47.3774 12.46C46.9201 11.96 46.6668 11.3227 46.6668 10.6667C46.6668 9.47469 47.4788 8.42266 48.6401 8.10813C49.0095 8.00813 49.316 7.75609 49.4854 7.41609C49.656 7.07609 49.6721 6.6775 49.5295 6.32547C49.4001 5.99875 49.3335 5.66547 49.3335 5.33344C49.3335 3.86281 50.5295 2.66672 52.0003 2.66672C53.4709 2.66672 54.667 3.86266 54.667 5.33344C54.667 5.66547 54.6003 5.99875 54.471 6.32547C54.3284 6.6775 54.3443 7.07609 54.5151 7.41609C54.6845 7.75609 54.991 8.00813 55.3604 8.10813C56.5218 8.42281 57.3337 9.47484 57.3337 10.6667C57.3337 11.3227 57.0804 11.96 56.6231 12.46C56.2763 12.8373 56.1778 13.38 56.3671 13.8559C56.5578 14.3319 57.0031 14.6559 57.5151 14.6906C58.9084 14.7866 60.0004 15.9466 60.0004 17.3333C60.0004 17.9892 59.7471 18.6266 59.2898 19.1266C58.9431 19.5039 58.8445 20.0466 59.0338 20.5225C59.2245 20.9984 59.6698 21.3225 60.1818 21.3572C61.5751 21.4531 62.6671 22.6131 62.6671 23.9998C62.6671 24.7398 62.3618 25.4319 61.8045 25.9466C61.4659 26.2625 61.3124 26.7319 61.4045 27.1866C61.4951 27.6413 61.8151 28.0159 62.2512 28.1759C63.2979 28.5613 64.0006 29.5627 64.0006 30.6666C64.0006 31.4025 64.5965 31.9998 65.3338 31.9998C66.0712 31.9998 66.6671 31.4025 66.6671 30.6666C66.6671 29.0425 65.9139 27.5319 64.6885 26.5372C65.1099 25.7678 65.3338 24.9025 65.3338 23.9998C65.3338 21.9145 64.1071 20.0825 62.3179 19.2158C62.5473 18.6184 62.6673 17.9811 62.6673 17.3331C62.6673 15.2478 61.4406 13.4158 59.6513 12.5491C59.8807 11.9517 60.0007 11.3144 60.0007 10.6664C60.0007 8.72234 58.9313 6.96641 57.286 6.03703C57.3181 5.80375 57.334 5.56906 57.334 5.33297C57.3334 2.39203 54.9415 0 52.0001 0C49.0587 0 46.6668 2.39203 46.6668 5.33328C46.6668 5.56922 46.6828 5.80391 46.7148 6.03734C45.0695 6.96672 44.0001 8.72266 44.0001 10.6667C44.0001 11.3147 44.1201 11.952 44.3495 12.5494C42.5601 13.4161 41.3335 15.248 41.3335 17.3334C41.3335 17.9814 41.4535 18.6188 41.6829 19.2161C39.8935 20.0828 38.667 21.9147 38.667 24.0002C38.667 24.9028 38.891 25.7681 39.3123 26.5375C38.0868 27.532 37.3334 29.0427 37.3334 30.6667Z" fill="#D4C17F"/>
<path d="M50.1588 18.5614C50.8361 18.8414 51.6161 18.5187 51.9002 17.8414C51.9255 17.7773 51.9629 17.7067 52.0002 17.6373C52.0375 17.7041 52.0722 17.7733 52.0975 17.8359C52.3082 18.3533 52.8069 18.668 53.3335 18.668C53.5015 18.668 53.6708 18.6359 53.8347 18.568C54.5174 18.292 54.8468 17.5133 54.5694 16.832C54.4215 16.4706 53.6082 14.6667 52 14.6667C50.3921 14.6667 49.5786 16.4708 49.4307 16.832C49.1547 17.5106 49.4814 18.2814 50.1588 18.5614Z" fill="#D4C17F"/>
<path d="M78.6667 77.3333H57.3333C56.5959 77.3333 56 77.9306 56 78.6666C56 79.4025 56.5959 79.9998 57.3333 79.9998H78.6666C79.4039 79.9998 79.9998 79.4025 79.9998 78.6666C79.9998 77.9306 79.4041 77.3333 78.6667 77.3333Z" fill="#D4C17F"/>
<path d="M78.6668 58.6667H66.6668V57.3334C66.6668 56.5975 66.0708 56.0002 65.3335 56.0002C64.5961 56.0002 64.0002 56.5975 64.0002 57.3334V58.6667H26.6668V57.3334C26.6668 56.5975 26.0694 56.0002 25.3335 56.0002C24.5975 56.0002 24.0002 56.5975 24.0002 57.3334V58.6667H12C11.2641 58.6667 10.6667 59.2641 10.6667 60V65.3333C10.6667 66.0692 11.2641 66.6666 12 66.6666H16V73.3333C16 74.0692 16.5974 74.6666 17.3333 74.6666C18.0692 74.6666 18.6666 74.0692 18.6666 73.3333V66.6666H72V73.3333C72 74.0692 72.596 74.6666 73.3333 74.6666C74.0707 74.6666 74.6666 74.0692 74.6666 73.3333V66.6666H78.6666C79.4039 66.6666 79.9999 66.0692 79.9999 65.3333V60C80 59.2641 79.4041 58.6667 78.6668 58.6667ZM77.3333 64H13.3333V61.3333H77.3333V64Z" fill="#D4C17F"/>
<path d="M20.0001 77.3333H8.00009V22.6667C8.00009 21.9308 7.40274 21.3334 6.66681 21.3334C5.93087 21.3334 5.33353 21.9308 5.33353 22.6667V77.3334H1.33353C0.597588 77.3334 0.000244141 77.9308 0.000244141 78.6667C0.000244141 79.4027 0.597432 80 1.33337 80H20.0001C20.736 80 21.3334 79.4027 21.3334 78.6667C21.3334 77.9308 20.736 77.3333 20.0001 77.3333Z" fill="#D4C17F"/>
<path d="M52 77.3333H49.3333C48.5959 77.3333 48 77.9306 48 78.6666C48 79.4025 48.5959 79.9998 49.3333 79.9998H52C52.7373 79.9998 53.3333 79.4025 53.3333 78.6666C53.3333 77.9306 52.7373 77.3333 52 77.3333Z" fill="#D4C17F"/>
<path d="M41.3333 77.3333H28C27.2641 77.3333 26.6667 77.9306 26.6667 78.6666C26.6667 79.4025 27.2641 80 28 80H41.3333C42.0707 80 42.6666 79.4027 42.6666 78.6667C42.6666 77.9308 42.0707 77.3333 41.3333 77.3333Z" fill="#D4C17F"/>
</svg>
