<svg width="21" height="21" viewBox="0 0 21 21" fill="none" xmlns="http://www.w3.org/2000/svg">
<path d="M10.5684 4.60214C9.0884 4.60214 7.88379 5.80676 7.88379 7.28673C7.88379 8.76671 9.0884 9.97132 10.5684 9.97132C12.0484 9.97132 13.253 8.76671 13.253 7.28673C13.253 5.80676 12.0484 4.60214 10.5684 4.60214ZM10.5684 9.20429C9.51103 9.20429 8.65081 8.34407 8.65081 7.28673C8.65081 6.22939 9.51103 5.36917 10.5684 5.36917C11.6257 5.36917 12.4859 6.22939 12.4859 7.28673C12.4859 8.34407 11.6257 9.20429 10.5684 9.20429Z" fill="white"/>
<path d="M15.7012 2.15419C14.3121 0.765108 12.4651 0 10.5008 0C8.53605 0 6.68944 0.765108 5.30036 2.15419C2.72967 4.72449 2.41021 9.56059 4.6085 12.4906L10.5008 21L16.3843 12.5025C18.5914 9.56059 18.2719 4.72449 15.7012 2.15419ZM15.7622 12.0542L10.5008 19.6523L5.23094 12.0423C3.23706 9.38379 3.52278 5.01635 5.84303 2.69648C7.08714 1.45236 8.74123 0.767025 10.5008 0.767025C12.2603 0.767025 13.9144 1.45236 15.1589 2.69648C17.4792 5.01635 17.7649 9.38379 15.7622 12.0542Z" fill="white"/>
</svg>
